# xmcd
#
# Track frame offsets:
#	150
#	11049
#	25884
#	39731
#	53066
#	67386
#	127600
#	141666
#
# Disc length: 2044 seconds
#
# Revision: 0
# Processed by: cddbd v1.5.2PL0 Copyright (c) Steve Scherf et al.
# Submitted via: dBpowerAMP V4.0
#
DISCID=7307fa08
DTITLE=DANIEL GUICHARD - A TENDRESSE
DYEAR=1900
DGENRE=Chanson  Française
TTITLE0=LA TENDRESSE
TTITLE1=FAUT PAS PLEURER COMME CA
TTITLE2=BIEN SUR
TTITLE3=SI JE T AIME
TTITLE4=REVIENS
TTITLE5=LES MANEGES
TTITLE6=JOUR A PRES JOUR
TTITLE7=LA NUIT
EXTD=
EXTT0=
EXTT1=
EXTT2=
EXTT3=
EXTT4=
EXTT5=
EXTT6=
EXTT7=
PLAYORDER=
